<svg xmlns="http://www.w3.org/2000/svg" aria-hidden="true" style="position:absolute;width:0;height:0;overflow:hidden">
  <defs>
    <symbol id="icon-paw" viewBox="0 0 32 32">
      <path d="M6 16.167c-.933 0-1.722-.322-2.367-.967s-.967-1.433-.967-2.367c0-.933.322-1.722.967-2.367S5.066 9.499 6 9.499c.933 0 1.722.322 2.367.967s.967 1.433.967 2.367c0 .933-.322 1.722-.967 2.367s-1.433.967-2.367.967zm6-5.334c-.933 0-1.722-.322-2.367-.967s-.967-1.433-.967-2.367c0-.933.322-1.722.967-2.367s1.433-.967 2.367-.967c.933 0 1.722.322 2.367.967s.967 1.433.967 2.367c0 .933-.322 1.722-.967 2.367s-1.433.967-2.367.967zm8 0c-.933 0-1.722-.322-2.367-.967s-.967-1.433-.967-2.367c0-.933.322-1.722.967-2.367s1.433-.967 2.367-.967c.933 0 1.722.322 2.367.967s.967 1.433.967 2.367c0 .933-.322 1.722-.967 2.367s-1.433.967-2.367.967zm6 5.334c-.933 0-1.722-.322-2.367-.967s-.967-1.433-.967-2.367c0-.933.322-1.722.967-2.367s1.433-.967 2.367-.967c.933 0 1.722.322 2.367.967s.967 1.433.967 2.367c0 .933-.322 1.722-.967 2.367s-1.433.967-2.367.967zM8.867 29.5c-1 0-1.839-.383-2.517-1.15s-1.017-1.672-1.017-2.717c0-1.156.394-2.167 1.183-3.033s1.572-1.722 2.35-2.567c.644-.689 1.2-1.439 1.667-2.25s1.022-1.572 1.667-2.283c.489-.578 1.056-1.056 1.7-1.433s1.344-.567 2.1-.567 1.456.178 2.1.533a6.04 6.04 0 0 1 1.7 1.4c.622.711 1.172 1.478 1.65 2.3s1.039 1.589 1.683 2.3c.778.844 1.561 1.7 2.35 2.567s1.183 1.878 1.183 3.033c0 1.044-.339 1.95-1.017 2.717s-1.517 1.15-2.517 1.15c-1.2 0-2.389-.1-3.567-.3a21.272 21.272 0 0 0-7.134 0c-1.178.2-2.367.3-3.567.3z"/>
    </symbol>
    <symbol id="icon-close" viewBox="0 0 32 32">
      <path d="m8.533 25.333-1.867-1.867 7.467-7.467-7.467-7.467 1.867-1.867L16 14.132l7.467-7.467 1.867 1.867-7.467 7.467 7.467 7.467-1.867 1.867L16 17.866l-7.467 7.467z"/>
    </symbol>
    <symbol id="icon-menu" viewBox="0 0 32 32">
      <path d="M4 24v-2.667h24V24H4zm0-6.667v-2.667h24v2.667H4zm0-6.666V8h24v2.667H4z"/>
    </symbol>
  </defs>
</svg>
